<mxfile host="app.diagrams.net" modified="2023-06-30T13:19:57.316Z" agent="Mozilla/5.0 (Windows NT 10.0; Win64; x64) AppleWebKit/537.36 (KHTML, like Gecko) Chrome/114.0.0.0 Safari/537.36" version="21.5.0" etag="_sHJ2rE_ABJtxco-0G3s" type="github">
  <diagram name="Page-1" id="W1yFooQbduaI3rVKMTkr">
    <mxGraphModel>
      <root>
        <mxCell id="0" />
        <mxCell id="1" parent="0" />
      </root>
    </mxGraphModel>
  </diagram>
</mxfile>
